<svg xmlns="http://www.w3.org/2000/svg" width="410" height="404" viewBox="0 0 410 404">
  <defs>
    <linearGradient id="vite-a" x1="55.8%" x2="46.4%" y1="0%" y2="100%">
      <stop offset="0%" stop-color="#41D1FF"/>
      <stop offset="100%" stop-color="#BD34FE"/>
    </linearGradient>
    <linearGradient id="vite-b" x1="50%" x2="50%" y1="0%" y2="100%">
      <stop offset="0%" stop-color="#FFEA83"/>
      <stop offset="8.3%" stop-color="#FFDD35"/>
      <stop offset="100%" stop-color="#FFA800"/>
    </linearGradient>
  </defs>
  <g fill="none">
    <path fill="url(#vite-a)" d="M399.2 59.5 215.6 388.4c-5.9 10.5-20.8 10.5-26.7 0L10.4 59.5c-6.7-12 1.6-26.8 15.5-26.8h357.8c13.8 0 22.2 14.8 15.4 26.8Z"/>
    <path fill="url(#vite-b)" d="M269.6 0 152.5 180.8c-3.8 5.9 2.5 13 8.9 9.4l66.6-35.4c6.1-3.2 13.2 2.7 11.4 9.2l-39.6 137.2c-2.1 7.2 6.9 12.3 11.7 6.6l2.7-3.1 160.5-240.5c4.2-6.3-2.7-14.1-9.5-10.3l-64.7 35.5c-6.1 3.3-13.2-2.6-11.5-9.1L281.7 6c1.9-6.9-5.9-12.2-12.1-8.4l-.1.1Z"/>
  </g>
</svg>

